<svg xmlns="http://www.w3.org/2000/svg" width="32" height="32" viewBox="0 0 32 32">
  <g id="twitter" transform="translate(-0.003)">
    <path id="Path_21" data-name="Path 21" d="M30.243,1.76A5.778,5.778,0,0,0,26,0H6a5.78,5.78,0,0,0-4.24,1.76A5.78,5.78,0,0,0,0,6V26a5.78,5.78,0,0,0,1.76,4.24A5.78,5.78,0,0,0,6,32H26a6.011,6.011,0,0,0,6-6V6A5.78,5.78,0,0,0,30.243,1.76Zm-5.76,10.552a5.524,5.524,0,0,1,.021.563,12.606,12.606,0,0,1-2.073,6.885,13.131,13.131,0,0,1-2.51,2.854,11.268,11.268,0,0,1-3.5,1.979,12.737,12.737,0,0,1-4.375.74,12.278,12.278,0,0,1-6.708-1.958,8.443,8.443,0,0,0,1.042.062,8.643,8.643,0,0,0,5.438-1.875,4.151,4.151,0,0,1-2.531-.875,4.446,4.446,0,0,1-1.552-2.167,5.866,5.866,0,0,0,.812.083,4.072,4.072,0,0,0,1.062-.166,4.377,4.377,0,0,1-2.562-1.51A4.16,4.16,0,0,1,6,14.146V14.1a5.166,5.166,0,0,0,2.083.542A4.126,4.126,0,0,1,6.191,11a4.333,4.333,0,0,1,.6-2.208,12.4,12.4,0,0,0,4,3.229,12.386,12.386,0,0,0,5.042,1.354,4.021,4.021,0,0,1-.1-1A4.375,4.375,0,0,1,20.107,8,4.158,4.158,0,0,1,23.3,9.375a8.7,8.7,0,0,0,2.792-1.062A4.254,4.254,0,0,1,24.15,10.75a9.274,9.274,0,0,0,2.52-.708A8.508,8.508,0,0,1,24.482,12.313Z" fill="#fff"/>
  </g>
</svg>
